
<svg xmlns="http://www.w3.org/2000/svg" viewBox="0 0 200 60" width="200" height="60">
  <defs>
    <linearGradient id="gradientBg" x1="0%" y1="0%" x2="100%" y2="0%">
      <stop offset="0%" style="stop-color:#E60000;stop-opacity:1" />
      <stop offset="100%" style="stop-color:#CC0000;stop-opacity:1" />
    </linearGradient>
  </defs>
  
  <!-- Background circle -->
  <circle cx="30" cy="30" r="25" fill="url(#gradientBg)"/>
  
  <!-- Icon - stylized U and G -->
  <g fill="white">
    <!-- U shape -->
    <path d="M20 18 L20 32 Q20 38 26 38 Q32 38 32 32 L32 18 L30 18 L30 32 Q30 36 26 36 Q22 36 22 32 L22 18 Z"/>
    <!-- G shape -->
    <path d="M36 20 Q40 16 44 20 L44 22 Q42 20 40 20 Q36 20 36 26 Q36 32 40 32 Q42 32 42 30 L40 30 L40 28 L44 28 L44 32 Q44 36 40 36 Q34 36 34 26 Q34 20 40 16 Q44 16 48 20"/>
  </g>
  
  <!-- Text -->
  <text x="65" y="25" font-family="Poppins, Arial, sans-serif" font-size="16" font-weight="700" fill="#E60000">United Girls</text>
  <text x="65" y="42" font-family="Poppins, Arial, sans-serif" font-size="12" font-weight="500" fill="#666">Society</text>
</svg>
