
<svg xmlns="http://www.w3.org/2000/svg" viewBox="0 0 60 60" width="60" height="60">
  <defs>
    <linearGradient id="faviconGradient" x1="0%" y1="0%" x2="100%" y2="0%">
      <stop offset="0%" style="stop-color:#E60000;stop-opacity:1" />
      <stop offset="100%" style="stop-color:#CC0000;stop-opacity:1" />
    </linearGradient>
  </defs>
  
  <!-- Background circle -->
  <circle cx="30" cy="30" r="28" fill="url(#faviconGradient)"/>
  
  <!-- Icon - stylized U and G -->
  <g fill="white">
    <!-- U shape -->
    <path d="M18 20 L18 34 Q18 40 24 40 Q30 40 30 34 L30 20 L28 20 L28 34 Q28 38 24 38 Q20 38 20 34 L20 20 Z"/>
    <!-- G shape -->
    <path d="M32 22 Q36 18 40 22 L40 24 Q38 22 36 22 Q32 22 32 28 Q32 34 36 34 Q38 34 38 32 L36 32 L36 30 L40 30 L40 34 Q40 38 36 38 Q30 38 30 28 Q30 22 36 18 Q40 18 44 22"/>
  </g>
</svg>
